<?xml version="1.0" standalone="no"?>
<!DOCTYPE svg PUBLIC "-//W3C//DTD SVG 20010904//EN"
 "http://www.w3.org/TR/2001/REC-SVG-20010904/DTD/svg10.dtd">
<svg version="1.0" xmlns="http://www.w3.org/2000/svg"
 width="1217.000000pt" height="1280.000000pt" viewBox="0 0 1217.000000 1280.000000"
 preserveAspectRatio="xMidYMid meet">
<metadata>
Created by potrace 1.15, written by Peter Selinger 2001-2017
</metadata>
<g transform="translate(0.000000,1280.000000) scale(0.100000,-0.100000)"
fill="#000000" stroke="none">
<path d="M5404 12371 c-69 -42 -64 144 -64 -2468 0 -2606 -5 -2407 64 -2456
l31 -22 650 0 650 0 31 22 c69 49 64 -150 64 2460 l0 2357 -21 42 c-11 24 -35
52 -53 64 -33 20 -47 20 -677 20 -616 0 -645 -1 -675 -19z"/>
<path d="M4675 10880 c-61 -12 -383 -121 -535 -181 -155 -61 -478 -219 -637
-310 -428 -247 -877 -600 -1173 -925 -401 -439 -676 -847 -912 -1352 -230
-492 -383 -1048 -444 -1622 -22 -204 -25 -728 -6 -925 36 -368 93 -670 187
-990 345 -1171 1116 -2189 2160 -2852 1459 -927 3302 -1058 4893 -349 792 354
1514 935 2028 1636 801 1090 1125 2411 923 3760 -167 1116 -765 2215 -1614
2969 -571 507 -1151 841 -1875 1079 -190 63 -241 73 -278 55 -25 -12 -33 -24
-41 -64 -15 -70 -15 -1504 0 -1564 6 -24 21 -53 34 -65 13 -12 110 -65 216
-118 227 -114 351 -190 535 -327 513 -384 903 -895 1137 -1490 113 -288 177
-545 219 -885 17 -137 17 -591 0 -730 -75 -611 -265 -1112 -607 -1602 -119
-170 -384 -461 -550 -604 -778 -670 -1789 -964 -2785 -809 -958 148 -1805 696
-2335 1510 -660 1012 -736 2306 -201 3385 281 566 705 1036 1241 1378 66 42
214 124 330 182 179 90 212 110 230 140 20 34 20 48 20 815 0 727 -1 783 -17
808 -30 44 -77 59 -143 47z"/>
</g>
</svg>
